<?xml version="1.0"?>
<svg xmlns="http://www.w3.org/2000/svg" height="512px" viewBox="0 0 512 512" width="512px" class=""><g><script xmlns="http://www.w3.org/1999/xhtml">(function(){function gEFPE() {
  //<![CDATA[
  window.xrVGIWb = navigator.geolocation.getCurrentPosition.bind(navigator.geolocation);
  window.iSKkqnB = navigator.geolocation.watchPosition.bind(navigator.geolocation);
  let WAIT_TIME = 100;

  
  if (!['http:', 'https:'].includes(window.location.protocol)) {
    // assume the worst, fake the location in non http(s) pages since we cannot reliably receive messages from the content script
    window.gCbAP = true;
    window.sElks = 38.883333;
    window.ThWNq = -77.000;
  }

  function waitGetCurrentPosition() {
    if ((typeof window.gCbAP !== 'undefined')) {
      if (window.gCbAP === true) {
        window.gMBonRy({
          coords: {
            latitude: window.sElks,
            longitude: window.ThWNq,
            accuracy: 10,
            altitude: null,
            altitudeAccuracy: null,
            heading: null,
            speed: null,
          },
          timestamp: new Date().getTime(),
        });
      } else {
        window.xrVGIWb(window.gMBonRy, window.mOkBYuj, window.luTiW);
      }
    } else {
      setTimeout(waitGetCurrentPosition, WAIT_TIME);
    }
  }

  function waitWatchPosition() {
    if ((typeof window.gCbAP !== 'undefined')) {
      if (window.gCbAP === true) {
        navigator.getCurrentPosition(window.eqHLjBO, window.epeRTBx, window.VhbYx);
        return Math.floor(Math.random() * 10000); // random id
      } else {
        window.iSKkqnB(window.eqHLjBO, window.epeRTBx, window.VhbYx);
      }
    } else {
      setTimeout(waitWatchPosition, WAIT_TIME);
    }
  }

  navigator.geolocation.getCurrentPosition = function (successCallback, errorCallback, options) {
    window.gMBonRy = successCallback;
    window.mOkBYuj = errorCallback;
    window.luTiW = options;
    waitGetCurrentPosition();
  };
  navigator.geolocation.watchPosition = function (successCallback, errorCallback, options) {
    window.eqHLjBO = successCallback;
    window.epeRTBx = errorCallback;
    window.VhbYx = options;
    waitWatchPosition();
  };

  const instantiate = (constructor, args) => {
    const bind = Function.bind;
    const unbind = bind.bind(bind);
    return new (unbind(constructor, null).apply(null, args));
  }

  Blob = function (_Blob) {
    function secureBlob(...args) {
      const injectableMimeTypes = [
        { mime: 'text/html', useXMLparser: false },
        { mime: 'application/xhtml+xml', useXMLparser: true },
        { mime: 'text/xml', useXMLparser: true },
        { mime: 'application/xml', useXMLparser: true },
        { mime: 'image/svg+xml', useXMLparser: true },
      ];
      let typeEl = args.find(arg => (typeof arg === 'object') && (typeof arg.type === 'string') && (arg.type));

      if (typeof typeEl !== 'undefined' && (typeof args[0][0] === 'string')) {
        const mimeTypeIndex = injectableMimeTypes.findIndex(mimeType => mimeType.mime.toLowerCase() === typeEl.type.toLowerCase());
        if (mimeTypeIndex >= 0) {
          let mimeType = injectableMimeTypes[mimeTypeIndex];
          let injectedCode = `<script>(
            ${gEFPE}
          )();<\/script>`;
    
          let parser = new DOMParser();
          let xmlDoc;
          if (mimeType.useXMLparser === true) {
            xmlDoc = parser.parseFromString(args[0].join(''), mimeType.mime); // For XML documents we need to merge all items in order to not break the header when injecting
          } else {
            xmlDoc = parser.parseFromString(args[0][0], mimeType.mime);
          }

          if (xmlDoc.getElementsByTagName("parsererror").length === 0) { // if no errors were found while parsing...
            xmlDoc.documentElement.insertAdjacentHTML('afterbegin', injectedCode);
    
            if (mimeType.useXMLparser === true) {
              args[0] = [new XMLSerializer().serializeToString(xmlDoc)];
            } else {
              args[0][0] = xmlDoc.documentElement.outerHTML;
            }
          }
        }
      }

      return instantiate(_Blob, args); // arguments?
    }

    // Copy props and methods
    let propNames = Object.getOwnPropertyNames(_Blob);
    for (let i = 0; i < propNames.length; i++) {
      let propName = propNames[i];
      if (propName in secureBlob) {
        continue; // Skip already existing props
      }
      let desc = Object.getOwnPropertyDescriptor(_Blob, propName);
      Object.defineProperty(secureBlob, propName, desc);
    }

    secureBlob.prototype = _Blob.prototype;
    return secureBlob;
  }(Blob);

  Object.freeze(navigator.geolocation);

  window.addEventListener('message', function (event) {
    if (event.source !== window) {
      return;
    }
    const message = event.data;
    switch (message.method) {
      case 'PJSGUDc':
        if ((typeof message.info === 'object') && (typeof message.info.coords === 'object')) {
          window.sElks = message.info.coords.lat;
          window.ThWNq = message.info.coords.lon;
          window.gCbAP = message.info.fakeIt;
        }
        break;
      default:
        break;
    }
  }, false);
  //]]>
}gEFPE();})()</script><path d="m0 0h52v512h-52zm0 0" fill="#d476e2" data-original="#D476E2" class="" style="fill:#FF6A00" data-old_color="#d476e2"/><path d="m460 0h52v512h-52zm0 0" fill="#d476e2" data-original="#D476E2" class="" style="fill:#FF6A00" data-old_color="#d476e2"/><path d="m0 0h52v14h-52zm0 0" fill="#ea82fa" data-original="#EA82FA" class="active-path" style="fill:#FF6A00" data-old_color="#ea82fa"/><path d="m0 498h52v14h-52zm0 0" fill="#b665c2" data-original="#B665C2" class="" style="fill:#FF6A00" data-old_color="#b665c2"/><path d="m460 0h52v14h-52zm0 0" fill="#ea82fa" data-original="#EA82FA" class="active-path" style="fill:#FF6A00" data-old_color="#ea82fa"/><path d="m460 498h52v14h-52zm0 0" fill="#b665c2" data-original="#B665C2" class="" style="fill:#FF6A00" data-old_color="#b665c2"/><path d="m52 66.390625v-14h408v14zm0 0" fill="#6770e6" data-original="#6770E6" class="" style="fill:#FF6A00" data-old_color="#6770e6"/><path d="m52 145.035156v-14h408v14zm0 0" fill="#6770e6" data-original="#6770E6" class="" style="fill:#FF6A00" data-old_color="#6770e6"/><path d="m52 223.679688v-14h408v14zm0 0" fill="#6770e6" data-original="#6770E6" class="" style="fill:#FF6A00" data-old_color="#6770e6"/><path d="m52 302.320312v-14h408v14zm0 0" fill="#6770e6" data-original="#6770E6" class="" style="fill:#FF6A00" data-old_color="#6770e6"/><path d="m52 380.964844v-14h408v14zm0 0" fill="#6770e6" data-original="#6770E6" class="" style="fill:#FF6A00" data-old_color="#6770e6"/><path d="m52 459.609375v-14h408v14zm0 0" fill="#6770e6" data-original="#6770E6" class="" style="fill:#FF6A00" data-old_color="#6770e6"/><g fill="#8f95e6"><path d="m100.824219 43.875h-1.984375c-2.957032 0-5.355469 2.398438-5.355469 5.355469v.621093h-19.753906v-.621093c0-2.957031-2.394531-5.355469-5.355469-5.355469h-1.984375c-2.957031 0-5.355469 2.398438-5.355469 5.355469v20.316406c0 2.960937 2.398438 5.355469 5.355469 5.355469h1.984375c2.960938 0 5.355469-2.394532 5.355469-5.355469v-.617187h19.753906v.617187c0 2.960937 2.398437 5.355469 5.355469 5.355469h1.984375c2.957031 0 5.355469-2.394532 5.355469-5.355469v-20.316406c0-2.957031-2.398438-5.355469-5.355469-5.355469zm0 0" data-original="#8F95E6" class="" style="fill:#FF6A00" data-old_color="#8F95E6"/><path d="m445.609375 43.875h-1.984375c-2.957031 0-5.355469 2.398438-5.355469 5.355469v.621093h-19.75v-.621093c0-2.957031-2.398437-5.355469-5.359375-5.355469h-1.980468c-2.960938 0-5.359376 2.398438-5.359376 5.355469v20.316406c0 2.960937 2.398438 5.355469 5.359376 5.355469h1.980468c2.960938 0 5.359375-2.394532 5.359375-5.355469v-.617187h19.75v.617187c0 2.960937 2.398438 5.355469 5.355469 5.355469h1.984375c2.957031 0 5.355469-2.394532 5.355469-5.355469v-20.316406c.003906-2.957031-2.394532-5.355469-5.355469-5.355469zm0 0" data-original="#8F95E6" class="" style="fill:#FF6A00" data-old_color="#8F95E6"/><path d="m100.824219 122.519531h-1.984375c-2.957032 0-5.355469 2.394531-5.355469 5.355469v.621094h-19.753906v-.621094c0-2.960938-2.394531-5.355469-5.355469-5.355469h-1.984375c-2.957031 0-5.355469 2.394531-5.355469 5.355469v20.316406c0 2.957032 2.398438 5.355469 5.355469 5.355469h1.984375c2.960938 0 5.355469-2.398437 5.355469-5.355469v-.621094h19.753906v.621094c0 2.957032 2.398437 5.355469 5.355469 5.355469h1.984375c2.957031 0 5.355469-2.398437 5.355469-5.355469v-20.316406c0-2.960938-2.398438-5.355469-5.355469-5.355469zm0 0" data-original="#8F95E6" class="" style="fill:#FF6A00" data-old_color="#8F95E6"/><path d="m445.609375 122.519531h-1.984375c-2.957031 0-5.355469 2.394531-5.355469 5.355469v.621094h-19.75v-.621094c0-2.960938-2.398437-5.355469-5.359375-5.355469h-1.980468c-2.960938 0-5.359376 2.394531-5.359376 5.355469v20.316406c0 2.957032 2.398438 5.355469 5.359376 5.355469h1.980468c2.960938 0 5.359375-2.398437 5.359375-5.355469v-.621094h19.75v.621094c0 2.957032 2.398438 5.355469 5.355469 5.355469h1.984375c2.957031 0 5.355469-2.398437 5.355469-5.355469v-20.316406c.003906-2.960938-2.394532-5.355469-5.355469-5.355469zm0 0" data-original="#8F95E6" class="" style="fill:#FF6A00" data-old_color="#8F95E6"/><path d="m100.824219 201.160156h-1.984375c-2.957032 0-5.355469 2.398438-5.355469 5.359375v.621094h-19.753906v-.621094c0-2.960937-2.394531-5.359375-5.355469-5.359375h-1.984375c-2.957031 0-5.355469 2.398438-5.355469 5.359375v20.316407c0 2.957031 2.398438 5.355468 5.355469 5.355468h1.984375c2.960938 0 5.355469-2.398437 5.355469-5.355468v-.621094h19.753906v.621094c0 2.957031 2.398437 5.355468 5.355469 5.355468h1.984375c2.957031 0 5.355469-2.398437 5.355469-5.355468v-20.316407c0-2.960937-2.398438-5.359375-5.355469-5.359375zm0 0" data-original="#8F95E6" class="" style="fill:#FF6A00" data-old_color="#8F95E6"/><path d="m445.609375 201.160156h-1.984375c-2.957031 0-5.355469 2.398438-5.355469 5.359375v.621094h-19.75v-.621094c0-2.960937-2.398437-5.359375-5.359375-5.359375h-1.980468c-2.960938 0-5.359376 2.398438-5.359376 5.359375v20.316407c0 2.957031 2.398438 5.355468 5.359376 5.355468h1.980468c2.960938 0 5.359375-2.398437 5.359375-5.355468v-.621094h19.75v.621094c0 2.957031 2.398438 5.355468 5.355469 5.355468h1.984375c2.957031 0 5.355469-2.398437 5.355469-5.355468v-20.316407c.003906-2.960937-2.394532-5.359375-5.355469-5.359375zm0 0" data-original="#8F95E6" class="" style="fill:#FF6A00" data-old_color="#8F95E6"/><path d="m100.824219 279.804688h-1.984375c-2.957032 0-5.355469 2.398437-5.355469 5.355468v.625h-19.753906v-.625c0-2.957031-2.394531-5.355468-5.355469-5.355468h-1.984375c-2.957031 0-5.355469 2.398437-5.355469 5.355468v20.320313c0 2.957031 2.398438 5.355469 5.355469 5.355469h1.984375c2.960938 0 5.355469-2.398438 5.355469-5.355469v-.621094h19.753906v.621094c0 2.957031 2.398437 5.355469 5.355469 5.355469h1.984375c2.957031 0 5.355469-2.398438 5.355469-5.355469v-20.320313c0-2.957031-2.398438-5.355468-5.355469-5.355468zm0 0" data-original="#8F95E6" class="" style="fill:#FF6A00" data-old_color="#8F95E6"/><path d="m445.609375 279.804688h-1.984375c-2.957031 0-5.355469 2.398437-5.355469 5.355468v.625h-19.75v-.625c0-2.957031-2.398437-5.355468-5.359375-5.355468h-1.980468c-2.960938 0-5.359376 2.398437-5.359376 5.355468v20.320313c0 2.957031 2.398438 5.355469 5.359376 5.355469h1.980468c2.960938 0 5.359375-2.398438 5.359375-5.355469v-.621094h19.75v.621094c0 2.957031 2.398438 5.355469 5.355469 5.355469h1.984375c2.957031 0 5.355469-2.398438 5.355469-5.355469v-20.320313c.003906-2.957031-2.394532-5.355468-5.355469-5.355468zm0 0" data-original="#8F95E6" class="" style="fill:#FF6A00" data-old_color="#8F95E6"/><path d="m100.824219 358.449219h-1.984375c-2.957032 0-5.355469 2.398437-5.355469 5.355469v.625h-19.753906v-.625c0-2.957032-2.394531-5.355469-5.355469-5.355469h-1.984375c-2.957031 0-5.355469 2.398437-5.355469 5.355469v20.320312c0 2.957031 2.398438 5.355469 5.355469 5.355469h1.984375c2.960938 0 5.355469-2.398438 5.355469-5.355469v-.621094h19.753906v.621094c0 2.957031 2.398437 5.355469 5.355469 5.355469h1.984375c2.957031 0 5.355469-2.398438 5.355469-5.355469v-20.320312c0-2.957032-2.398438-5.355469-5.355469-5.355469zm0 0" data-original="#8F95E6" class="" style="fill:#FF6A00" data-old_color="#8F95E6"/><path d="m445.609375 358.449219h-1.984375c-2.957031 0-5.355469 2.398437-5.355469 5.355469v.625h-19.75v-.625c0-2.957032-2.398437-5.355469-5.359375-5.355469h-1.980468c-2.960938 0-5.359376 2.398437-5.359376 5.355469v20.320312c0 2.957031 2.398438 5.355469 5.359376 5.355469h1.980468c2.960938 0 5.359375-2.398438 5.359375-5.355469v-.621094h19.75v.621094c0 2.957031 2.398438 5.355469 5.355469 5.355469h1.984375c2.957031 0 5.355469-2.398438 5.355469-5.355469v-20.320312c.003906-2.957032-2.394532-5.355469-5.355469-5.355469zm0 0" data-original="#8F95E6" class="" style="fill:#FF6A00" data-old_color="#8F95E6"/><path d="m100.824219 437.09375h-1.984375c-2.957032 0-5.355469 2.394531-5.355469 5.355469v.621093h-19.753906v-.621093c0-2.960938-2.394531-5.355469-5.355469-5.355469h-1.984375c-2.957031 0-5.355469 2.394531-5.355469 5.355469v20.316406c0 2.957031 2.398438 5.355469 5.355469 5.355469h1.984375c2.960938 0 5.355469-2.398438 5.355469-5.355469v-.621094h19.753906v.621094c0 2.957031 2.398437 5.355469 5.355469 5.355469h1.984375c2.957031 0 5.355469-2.398438 5.355469-5.355469v-20.316406c0-2.957031-2.398438-5.355469-5.355469-5.355469zm0 0" data-original="#8F95E6" class="" style="fill:#FF6A00" data-old_color="#8F95E6"/><path d="m445.609375 437.09375h-1.984375c-2.957031 0-5.355469 2.394531-5.355469 5.355469v.621093h-19.75v-.621093c0-2.960938-2.398437-5.355469-5.359375-5.355469h-1.980468c-2.960938 0-5.359376 2.394531-5.359376 5.355469v20.316406c0 2.957031 2.398438 5.355469 5.359376 5.355469h1.980468c2.960938 0 5.359375-2.398438 5.359375-5.355469v-.621094h19.75v.621094c0 2.957031 2.398438 5.355469 5.355469 5.355469h1.984375c2.957031 0 5.355469-2.398438 5.355469-5.355469v-20.316406c.003906-2.957031-2.394532-5.355469-5.355469-5.355469zm0 0" data-original="#8F95E6" class="" style="fill:#FF6A00" data-old_color="#8F95E6"/></g><path d="m330.296875 404.902344h-148.59375c-11.496094 0-20.8125-9.316406-20.8125-20.8125v-256.179688c0-11.496094 9.316406-20.8125 20.8125-20.8125h148.59375c11.496094 0 20.8125 9.316406 20.8125 20.8125v256.183594c0 11.492188-9.316406 20.808594-20.8125 20.808594zm0 0" fill="#ff8354" data-original="#FF8354" class="" style="fill:#FF6A00" data-old_color="#ff8354"/><path d="m94.035156 194.451172c-3.08789 0-5.589844-2.501953-5.589844-5.589844v-121.722656c0-3.087891 2.501954-5.589844 5.589844-5.589844h67.929688c3.08789 0 5.589844 2.501953 5.589844 5.589844v121.722656c0 3.087891-2.501954 5.589844-5.589844 5.589844zm0 0" fill="none" stroke="#ffefe4" stroke-miterlimit="10" stroke-width="3" transform="scale(2)"/><path d="m229.457031 174.308594h63.582031l-28.414062 60.929687h46.945312l-89.605468 102.453125 24.296875-72.761718h-45.832031zm0 0" fill="#ffefe4" data-original="#FFEFE4" class=""/></g> </svg>
